<svg xmlns="http://www.w3.org/2000/svg" viewBox="0 0 24 24" fill="none" stroke="#36492e" stroke-width="2" stroke-linecap="round" stroke-linejoin="round">
  <path d="M21.42 10.922a2 2 0 0 1-.019 3.018l-8.58 8.284a2 2 0 0 1-2.822 0l-8.579-8.284a2 2 0 0 1-.018-3.018l8.6-8.453a2 2 0 0 1 2.826 0l8.592 8.453L21.42 10.922Z" fill="#e9d4cd" stroke="none" />
  <path d="M22 10v6" />
  <path d="M6 12.5V16a6 3 0 0 0 12 0v-3.5" />
  <path d="M11 15 l1 -1 l1 1" />
  <path d="M12 2L2 10l10 8 10-8Z" fill="#13273f" stroke="#13273f" />
</svg>